# Blender v2.64 (sub 0) OBJ File: 'weapon-test.blend'
# www.blender.org
o Text.021_Mesh.009
v 0.500000 0.100000 -0.097604
v 0.466807 0.100000 -0.062605
v 0.431247 0.100000 -0.029964
v 0.393567 0.100000 0.000189
v 0.354016 0.100000 0.027723
v 0.312842 0.100000 0.052507
v 0.270292 0.100000 0.074411
v 0.226615 0.100000 0.093304
v 0.182059 0.100000 0.109054
v 0.136871 0.100000 0.121533
v 0.091300 0.100000 0.130608
v 0.045594 0.100000 0.136148
v 0.000000 0.100000 0.138024
v -0.045593 0.100000 0.136148
v -0.091300 0.100000 0.130608
v -0.136871 0.100000 0.121533
v -0.182059 0.100000 0.109055
v -0.226615 0.100000 0.093304
v -0.270292 0.100000 0.074411
v -0.312842 0.100000 0.052507
v -0.354016 0.100000 0.027723
v -0.393567 0.100000 0.000189
v -0.431247 0.100000 -0.029963
v -0.466807 0.100000 -0.062604
v -0.500000 0.100000 -0.097603
v -0.500000 0.100000 -0.161975
v -0.464575 0.100000 -0.133785
v -0.428090 0.100000 -0.108112
v -0.390524 0.100000 -0.084945
v -0.351852 0.100000 -0.064270
v -0.312053 0.100000 -0.046074
v -0.271104 0.100000 -0.030346
v -0.228983 0.100000 -0.017072
v -0.185666 0.100000 -0.006240
v -0.141132 0.100000 0.002163
v -0.095358 0.100000 0.008149
v -0.048322 0.100000 0.011732
v -0.000000 0.100000 0.012923
v 0.048322 0.100000 0.011732
v 0.095358 0.100000 0.008149
v 0.141132 0.100000 0.002163
v 0.185666 0.100000 -0.006240
v 0.228982 0.100000 -0.017072
v 0.271104 0.100000 -0.030346
v 0.312053 0.100000 -0.046075
v 0.351852 0.100000 -0.064270
v 0.390523 0.100000 -0.084945
v 0.428090 0.100000 -0.108113
v 0.464575 0.100000 -0.133786
v 0.500000 0.100000 -0.161976
v 0.500000 -0.100000 -0.097604
v 0.466807 -0.100000 -0.062605
v 0.431247 -0.100000 -0.029964
v 0.393567 -0.100000 0.000189
v 0.354016 -0.100000 0.027723
v 0.312842 -0.100000 0.052507
v 0.270292 -0.100000 0.074411
v 0.226615 -0.100000 0.093304
v 0.182059 -0.100000 0.109054
v 0.136871 -0.100000 0.121533
v 0.091300 -0.100000 0.130608
v 0.045594 -0.100000 0.136148
v 0.000000 -0.100000 0.138024
v -0.045593 -0.100000 0.136148
v -0.091300 -0.100000 0.130608
v -0.136871 -0.100000 0.121533
v -0.182059 -0.100000 0.109055
v -0.226615 -0.100000 0.093304
v -0.270292 -0.100000 0.074411
v -0.312842 -0.100000 0.052507
v -0.354016 -0.100000 0.027723
v -0.393567 -0.100000 0.000189
v -0.431247 -0.100000 -0.029963
v -0.466807 -0.100000 -0.062604
v -0.500000 -0.100000 -0.097603
v -0.500000 -0.100000 -0.161975
v -0.464575 -0.100000 -0.133785
v -0.428090 -0.100000 -0.108112
v -0.390524 -0.100000 -0.084945
v -0.351852 -0.100000 -0.064270
v -0.312053 -0.100000 -0.046074
v -0.271104 -0.100000 -0.030346
v -0.228983 -0.100000 -0.017072
v -0.185666 -0.100000 -0.006240
v -0.141132 -0.100000 0.002163
v -0.095358 -0.100000 0.008149
v -0.048322 -0.100000 0.011732
v -0.000000 -0.100000 0.012923
v 0.048322 -0.100000 0.011732
v 0.095358 -0.100000 0.008149
v 0.141132 -0.100000 0.002163
v 0.185666 -0.100000 -0.006240
v 0.228982 -0.100000 -0.017072
v 0.271104 -0.100000 -0.030346
v 0.312053 -0.100000 -0.046075
v 0.351852 -0.100000 -0.064270
v 0.390523 -0.100000 -0.084945
v 0.428090 -0.100000 -0.108113
v 0.464575 -0.100000 -0.133786
v 0.500000 -0.100000 -0.161976
v 0.500000 -0.100000 -0.097604
v 0.500000 0.100000 -0.097604
v 0.466807 -0.100000 -0.062605
v 0.466807 0.100000 -0.062605
v 0.431247 -0.100000 -0.029964
v 0.431247 0.100000 -0.029964
v 0.393567 -0.100000 0.000189
v 0.393567 0.100000 0.000189
v 0.354016 -0.100000 0.027723
v 0.354016 0.100000 0.027723
v 0.312842 -0.100000 0.052507
v 0.312842 0.100000 0.052507
v 0.270292 -0.100000 0.074411
v 0.270292 0.100000 0.074411
v 0.226615 -0.100000 0.093304
v 0.226615 0.100000 0.093304
v 0.182059 -0.100000 0.109054
v 0.182059 0.100000 0.109054
v 0.136871 -0.100000 0.121533
v 0.136871 0.100000 0.121533
v 0.091300 -0.100000 0.130608
v 0.091300 0.100000 0.130608
v 0.045594 -0.100000 0.136148
v 0.045594 0.100000 0.136148
v 0.000000 -0.100000 0.138024
v 0.000000 0.100000 0.138024
v -0.045593 -0.100000 0.136148
v -0.045593 0.100000 0.136148
v -0.091300 -0.100000 0.130608
v -0.091300 0.100000 0.130608
v -0.136871 -0.100000 0.121533
v -0.136871 0.100000 0.121533
v -0.182059 -0.100000 0.109055
v -0.182059 0.100000 0.109055
v -0.226615 -0.100000 0.093304
v -0.226615 0.100000 0.093304
v -0.270292 -0.100000 0.074411
v -0.270292 0.100000 0.074411
v -0.312842 -0.100000 0.052507
v -0.312842 0.100000 0.052507
v -0.354016 -0.100000 0.027723
v -0.354016 0.100000 0.027723
v -0.393567 -0.100000 0.000189
v -0.393567 0.100000 0.000189
v -0.431247 -0.100000 -0.029963
v -0.431247 0.100000 -0.029963
v -0.466807 -0.100000 -0.062604
v -0.466807 0.100000 -0.062604
v -0.500000 -0.100000 -0.097603
v -0.500000 0.100000 -0.097603
v -0.500000 -0.100000 -0.161975
v -0.500000 0.100000 -0.161975
v -0.464575 -0.100000 -0.133785
v -0.464575 0.100000 -0.133785
v -0.428090 -0.100000 -0.108112
v -0.428090 0.100000 -0.108112
v -0.390524 -0.100000 -0.084945
v -0.390524 0.100000 -0.084945
v -0.351852 -0.100000 -0.064270
v -0.351852 0.100000 -0.064270
v -0.312053 -0.100000 -0.046074
v -0.312053 0.100000 -0.046074
v -0.271104 -0.100000 -0.030346
v -0.271104 0.100000 -0.030346
v -0.228983 -0.100000 -0.017072
v -0.228983 0.100000 -0.017072
v -0.185666 -0.100000 -0.006240
v -0.185666 0.100000 -0.006240
v -0.141132 -0.100000 0.002163
v -0.141132 0.100000 0.002163
v -0.095358 -0.100000 0.008149
v -0.095358 0.100000 0.008149
v -0.048322 -0.100000 0.011732
v -0.048322 0.100000 0.011732
v -0.000000 -0.100000 0.012923
v -0.000000 0.100000 0.012923
v 0.048322 -0.100000 0.011732
v 0.048322 0.100000 0.011732
v 0.095358 -0.100000 0.008149
v 0.095358 0.100000 0.008149
v 0.141132 -0.100000 0.002163
v 0.141132 0.100000 0.002163
v 0.185666 -0.100000 -0.006240
v 0.185666 0.100000 -0.006240
v 0.228982 -0.100000 -0.017072
v 0.228982 0.100000 -0.017072
v 0.271104 -0.100000 -0.030346
v 0.271104 0.100000 -0.030346
v 0.312053 -0.100000 -0.046075
v 0.312053 0.100000 -0.046075
v 0.351852 -0.100000 -0.064270
v 0.351852 0.100000 -0.064270
v 0.390523 -0.100000 -0.084945
v 0.390523 0.100000 -0.084945
v 0.428090 -0.100000 -0.108113
v 0.428090 0.100000 -0.108113
v 0.464575 -0.100000 -0.133786
v 0.464575 0.100000 -0.133786
v 0.500000 -0.100000 -0.161976
v 0.500000 0.100000 -0.161976
vt 0.348256 0.032340
vt 0.262784 0.000000
vt 0.318217 0.000170
vt 0.286955 0.034310
vt 0.376259 0.066792
vt 0.308954 0.069637
vt 0.402113 0.103286
vt 0.328793 0.106003
vt 0.425705 0.141581
vt 0.346482 0.143430
vt 0.446926 0.181438
vt 0.362032 0.181940
vt 0.465661 0.222617
vt 0.375455 0.221555
vt 0.386761 0.262297
vt 0.481801 0.264876
vt 0.395960 0.304187
vt 0.495232 0.307978
vt 0.403064 0.347247
vt 0.505843 0.351681
vt 0.408083 0.391499
vt 0.513523 0.395745
vt 0.411029 0.436965
vt 0.518159 0.439931
vt 0.411911 0.483667
vt 0.519639 0.483998
vt 0.517888 0.528055
vt 0.410742 0.530363
vt 0.512981 0.572211
vt 0.407518 0.575810
vt 0.505032 0.616228
vt 0.402227 0.620031
vt 0.494153 0.659865
vt 0.394859 0.663046
vt 0.480457 0.702883
vt 0.385403 0.704879
vt 0.464059 0.745043
vt 0.373847 0.745551
vt 0.445071 0.786106
vt 0.360182 0.785082
vt 0.344395 0.823497
vt 0.423606 0.825832
vt 0.326477 0.860815
vt 0.399779 0.863981
vt 0.306415 0.897059
vt 0.373702 0.900316
vt 0.284200 0.932250
vt 0.345489 0.934595
vt 0.259819 0.966410
vt 0.315252 0.966581
vt 0.256855 0.000000
vt 0.171382 0.032340
vt 0.201422 0.000170
vt 0.232684 0.034310
vt 0.143380 0.066792
vt 0.210685 0.069637
vt 0.117526 0.103286
vt 0.190846 0.106003
vt 0.093934 0.141581
vt 0.173157 0.143430
vt 0.072713 0.181438
vt 0.157607 0.181940
vt 0.053978 0.222616
vt 0.144184 0.221555
vt 0.132878 0.262297
vt 0.037838 0.264876
vt 0.123679 0.304187
vt 0.024407 0.307978
vt 0.116575 0.347247
vt 0.013796 0.351681
vt 0.111556 0.391499
vt 0.006116 0.395745
vt 0.108610 0.436965
vt 0.001480 0.439931
vt 0.107728 0.483667
vt 0.000000 0.483998
vt 0.001751 0.528055
vt 0.108897 0.530363
vt 0.006657 0.572211
vt 0.112121 0.575810
vt 0.014607 0.616228
vt 0.117412 0.620031
vt 0.025486 0.659865
vt 0.124780 0.663046
vt 0.039182 0.702883
vt 0.134236 0.704879
vt 0.055580 0.745043
vt 0.145792 0.745551
vt 0.074568 0.786106
vt 0.159457 0.785082
vt 0.175243 0.823497
vt 0.096033 0.825831
vt 0.193162 0.860815
vt 0.119860 0.863981
vt 0.213224 0.897059
vt 0.145937 0.900316
vt 0.235439 0.932250
vt 0.174150 0.934595
vt 0.204387 0.966581
vt 0.734746 0.966535
vt 0.734644 0.933488
vt 0.943824 0.932846
vt 0.943926 0.965893
vt 0.734536 0.898221
vt 0.943716 0.897579
vt 0.734422 0.860977
vt 0.943602 0.860335
vt 0.734302 0.821999
vt 0.943482 0.821357
vt 0.734178 0.781531
vt 0.943358 0.780889
vt 0.734050 0.739815
vt 0.943230 0.739173
vt 0.733919 0.697095
vt 0.943099 0.696454
vt 0.733786 0.653615
vt 0.942966 0.652973
vt 0.733651 0.609617
vt 0.942831 0.608975
vt 0.733515 0.565344
vt 0.942695 0.564703
vt 0.733379 0.521041
vt 0.942559 0.520399
vt 0.733244 0.476949
vt 0.942424 0.476308
vt 0.733109 0.432964
vt 0.942289 0.432322
vt 0.732974 0.388972
vt 0.942154 0.388331
vt 0.732840 0.345211
vt 0.942019 0.344570
vt 0.732707 0.301916
vt 0.941887 0.301275
vt 0.732576 0.259323
vt 0.941756 0.258682
vt 0.732448 0.217668
vt 0.941628 0.217027
vt 0.732324 0.177187
vt 0.941504 0.176545
vt 0.732204 0.138115
vt 0.941384 0.137473
vt 0.732089 0.100689
vt 0.941269 0.100047
vt 0.731980 0.065144
vt 0.941160 0.064502
vt 0.731878 0.031716
vt 0.941058 0.031075
vt 0.731783 0.000642
vt 0.940962 0.000000
vt 0.999358 0.209350
vt 0.943926 0.209180
vt 0.944567 0.000000
vt 1.000000 0.000170
vt 0.731679 0.034220
vt 0.522500 0.033578
vt 0.522603 0.000000
vt 0.731573 0.068879
vt 0.522393 0.068237
vt 0.731463 0.104641
vt 0.522284 0.103999
vt 0.731350 0.141527
vt 0.522170 0.140885
vt 0.731234 0.179559
vt 0.522054 0.178917
vt 0.731113 0.218759
vt 0.521934 0.218117
vt 0.730989 0.259147
vt 0.521810 0.258505
vt 0.730862 0.300746
vt 0.521682 0.300104
vt 0.730730 0.343576
vt 0.521551 0.342935
vt 0.730595 0.387660
vt 0.521415 0.387018
vt 0.730456 0.433019
vt 0.521276 0.432377
vt 0.730313 0.479674
vt 0.521133 0.479032
vt 0.730170 0.526383
vt 0.520990 0.525741
vt 0.730030 0.571906
vt 0.520850 0.571264
vt 0.729894 0.616264
vt 0.520714 0.615622
vt 0.729761 0.659479
vt 0.520581 0.658837
vt 0.729632 0.701573
vt 0.520452 0.700931
vt 0.729506 0.742569
vt 0.520327 0.741927
vt 0.729384 0.782489
vt 0.520204 0.781847
vt 0.729265 0.821354
vt 0.520085 0.820712
vt 0.729149 0.859186
vt 0.519969 0.858545
vt 0.729036 0.896009
vt 0.519856 0.895367
vt 0.728926 0.931843
vt 0.519746 0.931201
vt 0.728819 0.966711
vt 0.519639 0.966069
vt 0.943926 0.209520
vt 1.000000 0.418530
vt 0.944567 0.418700
vn -0.000000 1.000000 0.000000
vn 0.000000 -1.000000 -0.000000
vn 0.928861 0.000000 0.370403
vn 0.701315 0.000000 0.712821
vn 0.650868 0.000000 0.759148
vn 0.598407 0.000000 0.801172
vn 0.543809 0.000000 0.839167
vn 0.486953 0.000000 0.873409
vn 0.427564 0.000000 0.903958
vn 0.365337 0.000000 0.930845
vn 0.299905 0.000000 0.953948
vn 0.230873 0.000000 0.972961
vn 0.157933 0.000000 0.987426
vn 0.080782 0.000000 0.996704
vn 0.000000 0.000000 0.999969
vn -0.080782 0.000000 0.996704
vn -0.157933 0.000000 0.987426
vn -0.230873 0.000000 0.972961
vn -0.299905 0.000000 0.953948
vn -0.365337 0.000000 0.930845
vn -0.427564 0.000000 0.903958
vn -0.486953 0.000000 0.873409
vn -0.543809 0.000000 0.839167
vn -0.598407 0.000000 0.801172
vn -0.650868 0.000000 0.759148
vn -0.701315 0.000000 0.712821
vn -0.928861 0.000000 0.370403
vn -0.434339 0.000000 -0.900723
vn 0.599322 0.000000 -0.800470
vn 0.550432 0.000000 -0.834864
vn 0.498428 0.000000 -0.866909
vn 0.443831 0.000000 -0.896084
vn 0.387341 0.000000 -0.921903
vn 0.329691 0.000000 -0.944060
vn 0.271676 0.000000 -0.962371
vn 0.214087 0.000000 -0.976806
vn 0.157598 0.000000 -0.987487
vn 0.102847 0.000000 -0.994690
vn 0.050295 0.000000 -0.998718
vn 0.000000 0.000000 -1.000000
vn -0.050295 0.000000 -0.998718
vn -0.102847 0.000000 -0.994690
vn -0.157598 0.000000 -0.987487
vn -0.214087 0.000000 -0.976806
vn -0.271676 0.000000 -0.962371
vn -0.329691 0.000000 -0.944060
vn -0.387341 0.000000 -0.921903
vn -0.443831 0.000000 -0.896084
vn -0.498428 0.000000 -0.866909
vn -0.550432 0.000000 -0.834864
vn -0.599322 0.000000 -0.800470
vn 0.434339 0.000000 -0.900723
s off
f 24/1/1 26/2/1 25/3/1
f 24/1/1 27/4/1 26/2/1
f 23/5/1 27/4/1 24/1/1
f 23/5/1 28/6/1 27/4/1
f 22/7/1 28/6/1 23/5/1
f 22/7/1 29/8/1 28/6/1
f 21/9/1 29/8/1 22/7/1
f 21/9/1 30/10/1 29/8/1
f 20/11/1 30/10/1 21/9/1
f 20/11/1 31/12/1 30/10/1
f 19/13/1 31/12/1 20/11/1
f 19/13/1 32/14/1 31/12/1
f 19/13/1 33/15/1 32/14/1
f 18/16/1 33/15/1 19/13/1
f 18/16/1 34/17/1 33/15/1
f 17/18/1 34/17/1 18/16/1
f 17/18/1 35/19/1 34/17/1
f 16/20/1 35/19/1 17/18/1
f 16/20/1 36/21/1 35/19/1
f 15/22/1 36/21/1 16/20/1
f 15/22/1 37/23/1 36/21/1
f 14/24/1 37/23/1 15/22/1
f 14/24/1 38/25/1 37/23/1
f 13/26/1 38/25/1 14/24/1
f 12/27/1 38/25/1 13/26/1
f 12/27/1 39/28/1 38/25/1
f 11/29/1 39/28/1 12/27/1
f 11/29/1 40/30/1 39/28/1
f 10/31/1 40/30/1 11/29/1
f 10/31/1 41/32/1 40/30/1
f 9/33/1 41/32/1 10/31/1
f 9/33/1 42/34/1 41/32/1
f 8/35/1 42/34/1 9/33/1
f 8/35/1 43/36/1 42/34/1
f 7/37/1 43/36/1 8/35/1
f 7/37/1 44/38/1 43/36/1
f 6/39/1 44/38/1 7/37/1
f 6/39/1 45/40/1 44/38/1
f 6/39/1 46/41/1 45/40/1
f 5/42/1 46/41/1 6/39/1
f 5/42/1 47/43/1 46/41/1
f 4/44/1 47/43/1 5/42/1
f 4/44/1 48/45/1 47/43/1
f 3/46/1 48/45/1 4/44/1
f 3/46/1 49/47/1 48/45/1
f 2/48/1 49/47/1 3/46/1
f 2/48/1 50/49/1 49/47/1
f 1/50/1 50/49/1 2/48/1
f 76/51/2 74/52/2 75/53/2
f 77/54/2 74/52/2 76/51/2
f 77/54/2 73/55/2 74/52/2
f 78/56/2 73/55/2 77/54/2
f 78/56/2 72/57/2 73/55/2
f 79/58/2 72/57/2 78/56/2
f 79/58/2 71/59/2 72/57/2
f 80/60/2 71/59/2 79/58/2
f 80/60/2 70/61/2 71/59/2
f 81/62/2 70/61/2 80/60/2
f 81/62/2 69/63/2 70/61/2
f 82/64/2 69/63/2 81/62/2
f 83/65/2 69/63/2 82/64/2
f 83/65/2 68/66/2 69/63/2
f 84/67/2 68/66/2 83/65/2
f 84/67/2 67/68/2 68/66/2
f 85/69/2 67/68/2 84/67/2
f 85/69/2 66/70/2 67/68/2
f 86/71/2 66/70/2 85/69/2
f 86/71/2 65/72/2 66/70/2
f 87/73/2 65/72/2 86/71/2
f 87/73/2 64/74/2 65/72/2
f 88/75/2 64/74/2 87/73/2
f 88/75/2 63/76/2 64/74/2
f 88/75/2 62/77/2 63/76/2
f 89/78/2 62/77/2 88/75/2
f 89/78/2 61/79/2 62/77/2
f 90/80/2 61/79/2 89/78/2
f 90/80/2 60/81/2 61/79/2
f 91/82/2 60/81/2 90/80/2
f 91/82/2 59/83/2 60/81/2
f 92/84/2 59/83/2 91/82/2
f 92/84/2 58/85/2 59/83/2
f 93/86/2 58/85/2 92/84/2
f 93/86/2 57/87/2 58/85/2
f 94/88/2 57/87/2 93/86/2
f 94/88/2 56/89/2 57/87/2
f 95/90/2 56/89/2 94/88/2
f 96/91/2 56/89/2 95/90/2
f 96/91/2 55/92/2 56/89/2
f 97/93/2 55/92/2 96/91/2
f 97/93/2 54/94/2 55/92/2
f 98/95/2 54/94/2 97/93/2
f 98/95/2 53/96/2 54/94/2
f 99/97/2 53/96/2 98/95/2
f 99/97/2 52/98/2 53/96/2
f 100/49/2 52/98/2 99/97/2
f 100/49/2 51/99/2 52/98/2
s 1
f 102/100/3 104/101/4 103/102/4
f 102/100/3 103/102/4 101/103/3
f 104/101/4 106/104/5 105/105/5
f 104/101/4 105/105/5 103/102/4
f 106/104/5 108/106/6 107/107/6
f 106/104/5 107/107/6 105/105/5
f 108/106/6 110/108/7 109/109/7
f 108/106/6 109/109/7 107/107/6
f 110/108/7 112/110/8 111/111/8
f 110/108/7 111/111/8 109/109/7
f 112/110/8 114/112/9 113/113/9
f 112/110/8 113/113/9 111/111/8
f 114/112/9 116/114/10 115/115/10
f 114/112/9 115/115/10 113/113/9
f 116/114/10 118/116/11 117/117/11
f 116/114/10 117/117/11 115/115/10
f 118/116/11 120/118/12 119/119/12
f 118/116/11 119/119/12 117/117/11
f 120/118/12 122/120/13 121/121/13
f 120/118/12 121/121/13 119/119/12
f 122/120/13 124/122/14 123/123/14
f 122/120/13 123/123/14 121/121/13
f 124/122/14 126/124/15 125/125/15
f 124/122/14 125/125/15 123/123/14
f 126/124/15 128/126/16 127/127/16
f 126/124/15 127/127/16 125/125/15
f 128/126/16 130/128/17 129/129/17
f 128/126/16 129/129/17 127/127/16
f 130/128/17 132/130/18 131/131/18
f 130/128/17 131/131/18 129/129/17
f 132/130/18 134/132/19 133/133/19
f 132/130/18 133/133/19 131/131/18
f 134/132/19 136/134/20 135/135/20
f 134/132/19 135/135/20 133/133/19
f 136/134/20 138/136/21 137/137/21
f 136/134/20 137/137/21 135/135/20
f 138/136/21 140/138/22 139/139/22
f 138/136/21 139/139/22 137/137/21
f 140/138/22 142/140/23 141/141/23
f 140/138/22 141/141/23 139/139/22
f 142/140/23 144/142/24 143/143/24
f 142/140/23 143/143/24 141/141/23
f 144/142/24 146/144/25 145/145/25
f 144/142/24 145/145/25 143/143/24
f 146/144/25 148/146/26 147/147/26
f 146/144/25 147/147/26 145/145/25
f 148/146/26 150/148/27 149/149/27
f 148/146/26 149/149/27 147/147/26
f 150/150/27 152/151/28 151/152/28
f 150/150/27 151/152/28 149/153/27
f 152/148/28 154/154/29 153/155/29
f 152/148/28 153/155/29 151/156/28
f 154/154/29 156/157/30 155/158/30
f 154/154/29 155/158/30 153/155/29
f 156/157/30 158/159/31 157/160/31
f 156/157/30 157/160/31 155/158/30
f 158/159/31 160/161/32 159/162/32
f 158/159/31 159/162/32 157/160/31
f 160/161/32 162/163/33 161/164/33
f 160/161/32 161/164/33 159/162/32
f 162/163/33 164/165/34 163/166/34
f 162/163/33 163/166/34 161/164/33
f 164/165/34 166/167/35 165/168/35
f 164/165/34 165/168/35 163/166/34
f 166/167/35 168/169/36 167/170/36
f 166/167/35 167/170/36 165/168/35
f 168/169/36 170/171/37 169/172/37
f 168/169/36 169/172/37 167/170/36
f 170/171/37 172/173/38 171/174/38
f 170/171/37 171/174/38 169/172/37
f 172/173/38 174/175/39 173/176/39
f 172/173/38 173/176/39 171/174/38
f 174/175/39 176/177/40 175/178/40
f 174/175/39 175/178/40 173/176/39
f 176/177/40 178/179/41 177/180/41
f 176/177/40 177/180/41 175/178/40
f 178/179/41 180/181/42 179/182/42
f 178/179/41 179/182/42 177/180/41
f 180/181/42 182/183/43 181/184/43
f 180/181/42 181/184/43 179/182/42
f 182/183/43 184/185/44 183/186/44
f 182/183/43 183/186/44 181/184/43
f 184/185/44 186/187/45 185/188/45
f 184/185/44 185/188/45 183/186/44
f 186/187/45 188/189/46 187/190/46
f 186/187/45 187/190/46 185/188/45
f 188/189/46 190/191/47 189/192/47
f 188/189/46 189/192/47 187/190/46
f 190/191/47 192/193/48 191/194/48
f 190/191/47 191/194/48 189/192/47
f 192/193/48 194/195/49 193/196/49
f 192/193/48 193/196/49 191/194/48
f 194/195/49 196/197/50 195/198/50
f 194/195/49 195/198/50 193/196/49
f 196/197/50 198/199/51 197/200/51
f 196/197/50 197/200/51 195/198/50
f 198/199/51 200/201/52 199/202/52
f 198/199/51 199/202/52 197/200/51
f 200/203/52 102/150/3 101/204/3
f 200/203/52 101/204/3 199/205/52
