# Blender v2.64 (sub 0) OBJ File: 'weapon-test.blend'
# www.blender.org
o Text.023_Mesh.011
v 0.172588 0.089844 0.167530
v 0.106867 0.089844 0.037338
v -0.102571 0.089844 0.037338
v -0.164681 0.089844 0.167530
v -0.236901 0.089844 0.167530
v -0.025296 0.089844 -0.276806
v 0.024536 0.089844 -0.276806
v 0.244808 0.089844 0.167530
v 0.077979 0.089844 -0.019661
v -0.001463 0.089844 -0.179648
v -0.075128 0.089844 -0.019661
v 0.172588 -0.089844 0.167530
v 0.106867 -0.089844 0.037338
v -0.102571 -0.089844 0.037338
v -0.164681 -0.089844 0.167530
v -0.236901 -0.089844 0.167530
v -0.025296 -0.089844 -0.276806
v 0.024536 -0.089844 -0.276806
v 0.244808 -0.089844 0.167530
v 0.077979 -0.089844 -0.019661
v -0.001463 -0.089844 -0.179648
v -0.075128 -0.089844 -0.019661
v 0.172588 -0.089844 0.167530
v 0.172588 0.089844 0.167530
v 0.106867 -0.089844 0.037338
v 0.106867 0.089844 0.037338
v -0.102571 -0.089844 0.037338
v -0.102571 0.089844 0.037338
v -0.164681 -0.089844 0.167530
v -0.164681 0.089844 0.167530
v -0.236901 -0.089844 0.167530
v -0.236901 0.089844 0.167530
v -0.025296 -0.089844 -0.276806
v -0.025296 0.089844 -0.276806
v 0.024536 -0.089844 -0.276806
v 0.024536 0.089844 -0.276806
v 0.244808 -0.089844 0.167530
v 0.244808 0.089844 0.167530
v 0.077979 -0.089844 -0.019661
v 0.077979 0.089844 -0.019661
v -0.001463 -0.089844 -0.179648
v -0.001463 0.089844 -0.179648
v -0.075128 -0.089844 -0.019661
v -0.075128 0.089844 -0.019661
v -0.075128 -0.000000 -0.019661
v 0.134672 -0.089844 -0.054638
v 0.134672 -0.089844 -0.054638
v -0.119182 -0.089844 -0.006059
v -0.038295 0.089844 -0.099654
v 0.077979 -0.000000 -0.019661
v -0.200791 0.089844 0.167530
v -0.106182 0.089844 -0.054638
v 0.092423 0.089844 0.008839
v 0.038258 0.089844 -0.099654
v 0.491442 -0.000000 0.167530
v -0.038295 -0.089844 -0.099654
v -0.169736 -0.089844 0.102434
v 0.134672 0.089844 -0.054638
v 0.121672 0.089844 -0.006059
v -0.088850 0.089844 0.008839
v 0.208698 0.089844 0.167530
v -0.131098 0.089844 -0.054638
v 0.161394 0.089844 0.073935
v -0.200791 0.089844 0.167530
v -0.156014 -0.089844 0.073935
v -0.025296 -0.000000 -0.276806
v 0.038258 0.089844 -0.099654
v -0.000380 0.089844 -0.276806
v 0.001426 0.089844 -0.019661
v -0.001463 -0.000000 -0.179648
v 0.208698 -0.089844 0.167530
v -0.131098 0.089844 -0.054638
v -0.200791 -0.089844 0.167530
v -0.169736 0.089844 0.102434
v 0.001426 0.089844 -0.019661
v 0.134672 0.089844 -0.054638
v 0.038258 -0.089844 -0.099654
v 0.024536 -0.000000 -0.276806
v -0.000380 -0.089844 -0.276806
v -0.000380 0.089844 -0.276806
v -0.131098 -0.089844 -0.054638
v 0.175838 -0.089844 0.102434
v -0.133626 0.089844 0.102434
v -0.156014 0.089844 0.073935
v 0.161394 -0.089844 0.073935
v -0.038295 -0.089844 -0.099654
v 0.208698 -0.089844 0.167530
v 0.139728 0.089844 0.102434
v -0.200791 -0.089844 0.167530
v -0.508558 -0.000000 0.167530
v -0.012296 -0.089844 0.008839
v 0.002148 0.089844 0.037338
v 0.121672 -0.089844 -0.006059
v -0.119182 0.089844 -0.006059
v -0.133626 0.089844 0.102434
v 0.038258 -0.089844 -0.099654
v 0.139728 -0.089844 0.102434
v 0.106867 -0.000000 0.037338
v 0.002148 0.089844 0.037338
v 0.011537 0.089844 -0.228227
v -0.131098 -0.089844 -0.054638
v -0.088850 -0.089844 0.008839
v 0.011537 -0.089844 -0.228227
v -0.164681 -0.000000 0.167530
v 0.139728 0.089844 0.102434
v -0.102571 -0.000000 0.037338
v 0.002148 -0.089844 0.037338
v -0.038295 0.089844 -0.099654
v -0.000380 -0.089844 -0.276806
v 0.175838 0.089844 0.102434
v 0.208698 0.089844 0.167530
v 0.139728 -0.089844 0.102434
v 0.172588 -0.000000 0.167530
v 0.092423 -0.089844 0.008839
v -0.106182 -0.089844 -0.054638
v -0.012296 0.089844 0.008839
v 0.002148 -0.089844 0.037338
v 0.001426 -0.089844 -0.019661
v -0.133626 -0.089844 0.102434
v 0.001426 -0.089844 -0.019661
v -0.133626 -0.089844 0.102434
v 0.139728 -0.000000 0.102434
v 0.002148 -0.000000 0.037338
v -0.133626 -0.000000 0.102434
v -0.200791 -0.000000 0.167530
v -0.000380 -0.000000 -0.276806
v 0.208698 -0.000000 0.167530
v 0.038258 -0.000000 -0.099654
v -0.038295 -0.000000 -0.099654
v 0.001426 -0.000000 -0.019661
vt 0.000000 0.000000
vt 1.000000 0.000000
vt 1.000000 1.000000
vt 0.000000 1.000000
vt 0.500000 0.000000
vt 0.146447 0.146447
vt 0.000000 0.500000
vt 0.146447 0.853553
vt 0.500000 1.000000
vt 0.853553 0.146447
vt 0.853553 0.853553
vt 1.000000 0.500000
vn 0.000000 1.000000 -0.000000
vn 0.000000 -1.000000 0.000000
vn -0.892697 0.000000 0.450636
vn -0.524094 0.000000 0.851650
vn 0.000000 0.000000 1.000000
vn 0.533555 0.000000 0.845729
vn 0.902554 0.000000 0.430555
vn -0.898862 0.000000 0.438185
vn -0.701041 0.000000 0.713095
vn 0.000000 0.000000 -1.000000
vn 0.440596 0.000000 -0.897671
vn -0.895657 0.000000 0.444716
vn 0.014679 0.000000 0.999878
vn 0.908322 0.000000 0.418226
vn 0.842067 0.000000 -0.539323
vn -0.849910 0.000000 -0.526902
vn -0.438185 0.000000 -0.898862
vn -0.787744 0.000000 -0.615955
vn 0.897671 0.000000 0.440596
vn 0.710471 0.000000 0.703696
vn 0.791070 0.000000 -0.611713
s off
f 5/1/1 52/2/1 62/3/1
f 5/1/1 94/2/1 52/3/1
f 10/1/1 59/2/1 100/3/1
f 5/1/1 84/2/1 94/3/1
f 9/1/1 63/2/1 67/3/1
f 5/1/1 74/2/1 84/3/1
f 3/1/1 116/2/1 60/3/1
f 3/1/1 92/2/1 116/3/1
f 2/1/1 110/2/1 53/3/1
f 5/1/1 64/2/1 74/3/1
f 1/1/1 111/2/1 105/3/1
f 18/1/2 115/2/2 79/3/2
f 21/1/2 48/2/2 103/3/2
f 19/1/2 93/2/2 47/3/2
f 22/1/2 65/2/2 86/3/2
f 19/1/2 85/2/2 93/3/2
f 14/1/2 57/2/2 102/3/2
f 20/1/2 91/2/2 120/3/2
f 13/1/2 117/2/2 114/3/2
f 19/1/2 82/2/2 85/3/2
f 15/1/2 73/2/2 121/3/2
f 19/1/2 71/2/2 82/3/2
f 62/1/1 68/2/1 6/3/1
f 62/1/1 52/2/1 68/3/1
f 52/1/1 7/2/1 68/3/1
f 52/1/1 100/2/1 7/3/1
f 52/1/1 94/2/1 100/3/1
f 94/1/1 10/2/1 100/3/1
f 100/1/1 76/2/1 7/3/1
f 100/1/1 59/2/1 76/3/1
f 59/1/1 8/2/1 76/3/1
f 94/1/1 108/2/1 10/3/1
f 94/1/1 84/2/1 108/3/1
f 84/1/1 11/2/1 108/3/1
f 67/1/1 59/2/1 10/3/1
f 67/1/1 63/2/1 59/3/1
f 63/1/1 8/2/1 59/3/1
f 84/1/1 60/2/1 11/3/1
f 84/1/1 74/2/1 60/3/1
f 74/1/1 3/2/1 60/3/1
f 60/1/1 75/2/1 11/3/1
f 60/1/1 116/2/1 75/3/1
f 116/1/1 9/2/1 75/3/1
f 116/1/1 53/2/1 9/3/1
f 116/1/1 92/2/1 53/3/1
f 92/1/1 2/2/1 53/3/1
f 53/1/1 63/2/1 9/3/1
f 53/1/1 110/2/1 63/3/1
f 110/1/1 8/2/1 63/3/1
f 74/1/1 83/2/1 3/3/1
f 74/1/1 64/2/1 83/3/1
f 64/1/1 4/2/1 83/3/1
f 105/1/1 110/2/1 2/3/1
f 105/1/1 111/2/1 110/3/1
f 111/1/1 8/2/1 110/3/1
f 79/1/2 101/2/2 17/3/2
f 79/1/2 115/2/2 101/3/2
f 115/1/2 16/2/2 101/3/2
f 103/1/2 115/2/2 18/3/2
f 103/1/2 48/2/2 115/3/2
f 48/1/2 16/2/2 115/3/2
f 47/1/2 103/2/2 18/3/2
f 47/1/2 93/2/2 103/3/2
f 93/1/2 21/2/2 103/3/2
f 86/1/2 48/2/2 21/3/2
f 86/1/2 65/2/2 48/3/2
f 65/1/2 16/2/2 48/3/2
f 93/1/2 96/2/2 21/3/2
f 93/1/2 85/2/2 96/3/2
f 85/1/2 20/2/2 96/3/2
f 102/1/2 65/2/2 22/3/2
f 102/1/2 57/2/2 65/3/2
f 57/1/2 16/2/2 65/3/2
f 120/1/2 102/2/2 22/3/2
f 120/1/2 91/2/2 102/3/2
f 91/1/2 14/2/2 102/3/2
f 114/1/2 91/2/2 20/3/2
f 114/1/2 117/2/2 91/3/2
f 117/1/2 14/2/2 91/3/2
f 85/1/2 114/2/2 20/3/2
f 85/1/2 82/2/2 114/3/2
f 82/1/2 13/2/2 114/3/2
f 121/1/2 57/2/2 14/3/2
f 121/1/2 73/2/2 57/3/2
f 73/1/2 16/2/2 57/3/2
f 82/1/2 112/2/2 13/3/2
f 82/1/2 71/2/2 112/3/2
f 71/1/2 12/2/2 112/3/2
s 1
f 122/1/3 98/2/4 25/3/4
f 122/1/3 25/3/4 97/4/3
f 123/1/5 106/2/6 27/3/6
f 123/1/5 27/3/6 107/4/5
f 124/1/7 104/2/6 29/3/6
f 124/1/7 29/3/6 119/4/7
f 125/1/5 90/2/8 31/3/9
f 125/1/5 31/3/9 89/4/5
f 126/1/10 78/2/11 35/3/11
f 126/1/10 35/3/11 109/4/10
f 127/1/5 113/2/4 23/3/4
f 127/1/5 23/3/4 87/4/5
f 128/1/12 70/2/13 41/3/13
f 128/1/12 41/3/13 77/4/12
f 129/1/14 45/2/15 43/3/15
f 129/1/14 43/3/15 56/4/14
f 130/1/10 50/2/16 39/3/16
f 130/1/10 39/3/16 118/4/10
f 113/1/4 122/2/3 97/3/3
f 113/1/4 97/3/3 23/4/4
f 24/1/4 88/2/3 122/3/3
f 24/1/4 122/3/3 113/4/4
f 88/1/3 26/2/4 98/3/4
f 88/1/3 98/3/4 122/4/3
f 98/1/4 123/2/5 107/3/5
f 98/1/4 107/3/5 25/4/4
f 26/1/4 99/2/5 123/3/5
f 26/1/4 123/3/5 98/4/4
f 99/1/5 28/2/6 106/3/6
f 99/1/5 106/3/6 123/4/5
f 106/1/6 124/2/7 119/3/7
f 106/1/6 119/3/7 27/4/6
f 28/1/6 95/2/7 124/3/7
f 28/1/6 124/3/7 106/4/6
f 95/1/7 30/2/6 104/3/6
f 95/1/7 104/3/6 124/4/7
f 104/1/6 125/2/5 89/3/5
f 104/1/6 89/3/5 29/4/6
f 30/1/6 51/2/5 125/3/5
f 30/1/6 125/3/5 104/4/6
f 51/1/5 32/2/9 90/3/8
f 51/1/5 90/3/8 125/4/5
f 66/1/17 126/2/10 109/3/10
f 66/1/17 109/3/10 33/4/17
f 34/1/17 80/2/10 126/3/10
f 34/1/17 126/3/10 66/4/17
f 80/1/10 36/2/11 78/3/11
f 80/1/10 78/3/11 126/4/10
f 90/5/8 32/6/9 72/7/18
f 90/5/8 72/7/18 34/8/17
f 66/9/17 90/5/8 34/8/17
f 66/9/17 31/10/9 90/5/8
f 66/9/17 33/11/17 31/10/9
f 33/11/17 81/12/18 31/10/9
f 55/1/19 127/2/5 87/3/5
f 55/1/19 87/3/5 37/4/20
f 38/1/20 61/2/5 127/3/5
f 38/1/20 127/3/5 55/4/19
f 61/1/5 24/2/4 113/3/4
f 61/1/5 113/3/4 127/4/5
f 50/1/16 128/2/12 77/3/12
f 50/1/16 77/3/12 39/4/16
f 40/1/16 54/2/12 128/3/12
f 40/1/16 128/3/12 50/4/16
f 54/1/12 42/2/13 70/3/13
f 54/1/12 70/3/13 128/4/12
f 70/1/13 129/2/14 56/3/14
f 70/1/13 56/3/14 41/4/13
f 42/1/13 49/2/14 129/3/14
f 42/1/13 129/3/14 70/4/13
f 49/1/14 44/2/15 45/3/15
f 49/1/14 45/3/15 129/4/14
f 45/1/15 130/2/10 118/3/10
f 45/1/15 118/3/10 43/4/15
f 44/1/15 69/2/10 130/3/10
f 44/1/15 130/3/10 45/4/15
f 69/1/10 40/2/16 50/3/16
f 69/1/10 50/3/16 130/4/10
f 55/9/19 58/7/21 38/8/20
f 55/9/19 36/6/11 58/7/21
f 55/9/19 78/5/11 36/6/11
f 55/9/19 37/11/20 78/5/11
f 37/11/20 35/10/11 78/5/11
f 37/11/20 46/12/21 35/10/11
